<?xml version="1.0" encoding="utf-8"?>
<svg viewBox="0 0 512 512" xmlns="http://www.w3.org/2000/svg">
  <rect x="0" y="0" width="512" height="512" style="fill: rgb(51, 51, 51);"/>
  <path d="M 369.061 103.142 L 208.75 160.803 C 201.736 163.325 196.938 170.712 196.938 179.121 L 196.938 338.049 C 189.501 334.805 180.853 332.883 171.625 332.883 C 143.675 332.883 121 350.121 121 371.323 C 121 392.526 143.675 409.764 171.625 409.764 C 199.575 409.764 222.25 392.526 222.25 371.323 L 222.25 234.68 L 365.686 183.086 L 365.686 299.608 C 358.251 296.364 349.601 294.443 340.373 294.443 C 312.424 294.443 289.75 311.681 289.75 332.883 C 289.75 354.085 312.424 371.323 340.373 371.323 C 368.322 371.323 391 354.085 391 332.883 L 391 121.461 C 391 108.428 379.871 99.237 369.061 103.142 Z" style="fill: rgb(0, 140, 186);"/>
</svg>