<?xml version="1.0" encoding="utf-8"?>
<svg viewBox="0 0 512 512" xmlns="http://www.w3.org/2000/svg">
  <rect x="0" y="0" width="512" height="512" style="fill: rgb(51, 51, 51);"/>
  <path d="M 377.493 101.094 L 205.227 160.106 C 197.69 162.687 192.534 170.248 192.534 178.855 L 192.534 318.454 C 184.6 314.091 175.307 311.632 165.333 311.632 C 134.62 311.632 110.934 335.052 110.934 363.267 C 110.934 391.605 134.79 414.902 165.333 414.902 C 196.047 414.902 219.733 391.483 219.733 363.267 L 219.733 255.386 L 373.866 202.582 L 373.866 279.113 C 365.933 274.749 356.64 272.289 346.666 272.289 C 315.953 272.289 292.266 295.71 292.266 323.926 C 292.266 352.263 316.123 375.561 346.666 375.561 C 377.379 375.561 401.066 352.141 401.066 323.926 L 401.066 119.842 C 401.066 106.503 389.11 97.098 377.493 101.094 Z" style="fill: rgb(0, 140, 186);"/>
</svg>